<svg width="139" height="154" viewBox="0 0 139 154" fill="none" xmlns="http://www.w3.org/2000/svg">
<path d="M49 113C49 106.118 49 98.6868 39.392 93.6775M72 113C72 105.387 74.2638 98.2274 82.6688 93.6745M82.6694 92.5429C77.1354 89.2156 65.478 68.53 62 57.1527M60 57.2417C56.573 68.6542 45.1953 89.2847 39.3964 92.5574M38 92C37.5293 92 37.1223 92.3283 37.0227 92.7883C36.923 93.2483 37.1577 93.7156 37.5862 93.9104C42.8841 96.3185 45.4282 99.341 46.6951 102.543C47.9884 105.811 48 109.366 48 113H50L50 112.916C50.0001 109.372 50.0002 105.46 48.5549 101.807C47.2567 98.5264 44.8302 95.5296 40.4213 93.0951C40.7414 92.8764 41.0562 92.6292 41.3626 92.366C42.4735 91.4117 43.6765 90.0683 44.915 88.4725C47.3965 85.2752 50.1125 80.9444 52.627 76.3555C55.1434 71.763 57.4746 66.8815 59.1799 62.571C59.4707 61.836 59.745 61.1132 60 60.4078V84.1221C59.0602 84.3509 58.2046 84.8812 57.5429 85.5429C56.6525 86.4332 56 87.6748 56 89C56 90.3252 56.6525 91.5668 57.5429 92.4571C58.4332 93.3475 59.6748 94 61 94C62.3252 94 63.5668 93.3475 64.4571 92.4571C65.3475 91.5668 66 90.3252 66 89C66 87.6748 65.3475 86.4332 64.4571 85.5429C63.7954 84.8812 62.9398 84.3509 62 84.1221V60.2695C62.2764 61.0212 62.5754 61.7928 62.8934 62.5783C64.638 66.8885 67.0161 71.7693 69.5631 76.3601C72.1083 80.9479 74.8383 85.2752 77.2931 88.4688C78.5181 90.0625 79.6966 91.403 80.7685 92.3551C81.0723 92.6249 81.3747 92.87 81.6739 93.0836C77.8134 95.2869 75.2165 98.0661 73.5529 101.221C71.6391 104.851 71 108.903 71 113H73C73 109.097 73.6109 105.399 75.3221 102.154C77.0243 98.9255 79.8545 96.0702 84.4281 93.9037C84.8508 93.7035 85.0783 93.237 84.9756 92.7806C84.873 92.3243 84.4678 92 84 92C83.8889 92 83.6686 91.9554 83.3171 91.7621C82.9739 91.5734 82.5656 91.2762 82.0967 90.8598C81.1588 90.0267 80.0678 88.7969 78.8788 87.25C76.5054 84.1623 73.8292 79.9271 71.3119 75.3899C68.7964 70.8557 66.4558 66.049 64.7473 61.8279C63.0182 57.556 62 54.0333 62 52C62 51.4477 61.5523 51 61 51C60.4477 51 60 51.4477 60 52C60 54.0387 59.0092 57.5656 57.3201 61.8353C55.6504 66.056 53.3566 70.862 50.873 75.3945C48.3875 79.9306 45.7285 84.1623 43.335 87.2463C42.136 88.7911 41.0265 90.018 40.0593 90.8489C39.0438 91.7212 38.3632 92 38 92Z" stroke="black" stroke-width="2" stroke-linejoin="round"/>
<path d="M60 50V55.5H62V50H64C64.5523 50 65 49.5523 65 49V45.9901C73.063 46.0624 80.6761 49.8841 86.3613 55.4755C92.0046 61.0256 95.6458 68.2179 95.9755 75H93C92.4477 75 92 75.4477 92 76V84C92 84.5523 92.4477 85 93 85H101C101.552 85 102 84.5523 102 84V76C102 75.4477 101.552 75 101 75H100.5V49V44C100.5 42.7286 100.013 41.7016 99.2269 41.0026C98.4588 40.3199 97.4631 40 96.5 40C95.4491 40 94.3438 40.5064 93.5148 41.2601C92.6724 42.0259 92 43.1532 92 44.5H93C92 44.5 92 44.5002 92 44.5004V44.5009V44.502L92 44.505L92 44.5136L92.0003 44.5415C92.0006 44.5646 92.0012 44.5969 92.0023 44.6371C92.0046 44.7176 92.009 44.8308 92.0176 44.9686C92.0347 45.2428 92.069 45.622 92.1386 46.0394C92.2662 46.8052 92.5514 47.9656 93.2929 48.7071C94.0344 49.4486 95.1948 49.7338 95.9606 49.8614C96.378 49.931 96.7572 49.9653 97.0314 49.9824C97.1692 49.991 97.2824 49.9954 97.3629 49.9977C97.4031 49.9988 97.4354 49.9994 97.4585 49.9997L97.4864 49.9999L97.495 50L97.498 50L97.4991 50H97.4996C97.4998 50 97.5 50 97.5 49V50H98.5V75H97.9777C97.6489 67.5739 93.7002 59.8882 87.7637 54.0495C81.7869 48.1713 73.6908 44.0617 65 43.99V41C65 40.4477 64.5523 40 64 40H57C56.4477 40 56 40.4477 56 41V49C56 49.5523 56.4477 50 57 50H60Z" stroke="black" stroke-width="2" stroke-linejoin="round"/>
<path d="M49 112C49 106.147 49 98.3898 38.7869 93.3719M72 112C72 105.674 74.3678 97.9276 83.2513 93.3692M84 93C78.8934 93 63.4421 65.4141 61.2578 54.2642M60.7491 54.2654C58.6232 65.4161 43.5706 93 38 93M38 92.5C37.7646 92.5 37.5612 92.6641 37.5113 92.8941C37.4615 93.1242 37.5788 93.3578 37.7931 93.4552C43.1901 95.9084 45.8404 99.0698 47.162 102.314C48.4947 105.585 48.5 108.989 48.5 112H49.5V111.967C49.5 108.985 49.5 105.402 48.088 101.936C46.7649 98.6887 44.2224 95.5848 39.4018 93.1208C39.9357 92.854 40.4851 92.4606 41.0367 91.9867C42.1117 91.0633 43.2914 89.749 44.52 88.1659C46.9795 84.997 49.6813 80.6909 52.1885 76.1153C54.6967 71.5378 57.0186 66.6751 58.7149 62.3871C59.4279 60.5848 60.0358 58.8711 60.5 57.3152V84.535C59.5201 84.6714 58.5982 85.1946 57.8964 85.8964C57.0763 86.7166 56.5 87.8374 56.5 89C56.5 90.1626 57.0763 91.2834 57.8964 92.1036C58.7166 92.9237 59.8374 93.5 61 93.5C62.1626 93.5 63.2834 92.9237 64.1036 92.1036C64.9237 91.2834 65.5 90.1626 65.5 89C65.5 87.8374 64.9237 86.7166 64.1036 85.8964C63.4018 85.1946 62.4799 84.6714 61.5 84.535V57.2275C61.98 58.808 62.6132 60.5536 63.3568 62.3907C65.0924 66.6786 67.4612 71.5409 70.0003 76.1176C72.5385 80.6927 75.2551 84.997 77.6895 88.1641C78.9055 89.7461 80.0622 91.0589 81.1006 91.9812C81.6198 92.4425 82.1206 92.8161 82.5944 93.0766C82.617 93.089 82.6395 93.1011 82.6621 93.1131C73.864 97.8029 71.5 105.629 71.5 112H72.5C72.5 105.634 74.9366 97.8464 84.214 93.4519C84.4254 93.3517 84.5391 93.1185 84.4878 92.8903C84.4365 92.6621 84.2339 92.5 84 92.5C83.7725 92.5 83.4671 92.4152 83.0762 92.2003C82.6895 91.9876 82.2503 91.665 81.7647 91.2336C80.7933 90.3708 79.6804 89.1133 78.4824 87.5547C76.0886 84.4405 73.399 80.1823 70.8747 75.6324C68.3513 71.0841 66.0013 66.2589 64.2838 62.0155C62.556 57.7468 61.5 54.1417 61.5 52C61.5 51.7239 61.2761 51.5 61 51.5C60.7239 51.5 60.5 51.7239 60.5 52C60.5 54.1444 59.4734 57.7515 57.7851 62.0192C56.1064 66.2624 53.8033 71.0872 51.3115 75.6347C48.8187 80.1841 46.1455 84.4405 43.73 87.5528C42.5211 89.1104 41.3883 90.3664 40.3851 91.2281C39.3578 92.1106 38.5566 92.5 38 92.5Z" fill="white" stroke="white" stroke-linejoin="round"/>
<path d="M60.5 49.5V55.5H61.5V49.5H64C64.2761 49.5 64.5 49.2761 64.5 49V45.4904C72.9058 45.4053 80.8372 49.3412 86.7119 55.119C92.5661 60.8766 96.3242 68.4099 96.494 75.5H93C92.7239 75.5 92.5 75.7239 92.5 76V84C92.5 84.2761 92.7239 84.5 93 84.5H101C101.276 84.5 101.5 84.2761 101.5 84V76C101.5 75.7239 101.276 75.5 101 75.5H100V49V44C100 42.8643 99.5691 41.9758 98.8947 41.3763C98.2294 40.7849 97.3565 40.5 96.5 40.5C95.5996 40.5 94.6094 40.9407 93.8512 41.63C93.0862 42.3254 92.5 43.3266 92.5 44.5H93C92.5 44.5 92.5 44.5001 92.5 44.5002V44.5005V44.5012L92.5 44.5034L92.5 44.5104L92.5003 44.5349C92.5006 44.5558 92.5011 44.5855 92.5021 44.6233C92.5042 44.6987 92.5084 44.806 92.5166 44.9374C92.533 45.1995 92.5658 45.561 92.6318 45.9572C92.7581 46.7151 93.0257 47.7328 93.6464 48.3536C94.2672 48.9743 95.2849 49.2419 96.0428 49.3682C96.439 49.4342 96.8005 49.467 97.0626 49.4834C97.194 49.4916 97.3013 49.4958 97.3767 49.4979C97.4145 49.4989 97.4442 49.4994 97.4651 49.4997L97.4896 49.5L97.4966 49.5L97.4988 49.5L97.4995 49.5H97.4998C97.4999 49.5 97.5 49.5 97.5 49V49.5H99V75.5H97.4943C97.325 68.0835 93.4111 60.3051 87.4131 54.406C81.394 48.4862 73.2219 44.405 64.5 44.4903V41C64.5 40.7239 64.2761 40.5 64 40.5H57C56.7239 40.5 56.5 40.7239 56.5 41V49C56.5 49.2761 56.7239 49.5 57 49.5H60.5Z" fill="white" stroke="white" stroke-linejoin="round"/>
<path d="M1 36L69 1L79.5 5.5V19L22 50.5V102.5L72 130.5L128.5 99L138 104V115L69 153L1 115V36Z" fill="#D9D9D9"/>
<path d="M138 104V115L69 153L1 115V36L69 1L79.5 5.5M138 104L128.5 99L72 130.5L22 102.5M138 104L69 143L10 108.5M22 102.5V50.5L79.5 19V5.5M22 102.5L10 108.5M79.5 5.5L10 41.5V108.5" stroke="black"/>
</svg>
