<svg width="139" height="154" viewBox="0 0 139 154" fill="none" xmlns="http://www.w3.org/2000/svg">
<path d="M110 78L74.5 58.5V67.5L98.5 81L74.5 93V101L110 84.5V78Z" fill="#D9D9D9"/>
<path d="M28 78L65 58.5V67.5L38 81L65 93V101L28 84.5V78Z" fill="#D9D9D9"/>
<path d="M110 78L74.5 58.5V67.5L98.5 81L74.5 93V101L110 84.5V78Z" stroke="black"/>
<path d="M28 78L65 58.5V67.5L38 81L65 93V101L28 84.5V78Z" stroke="black"/>
<path d="M1 36L69 1L79.5 5.5V19L22 50.5V102.5L72 130.5L128.5 99L138 104V115L69 153L1 115V36Z" fill="#D9D9D9"/>
<path d="M138 104V115L69 153L1 115V36L69 1L79.5 5.5M138 104L128.5 99L72 130.5L22 102.5M138 104L69 143L10 108.5M22 102.5V50.5L79.5 19V5.5M22 102.5L10 108.5M79.5 5.5L10 41.5V108.5" stroke="black"/>
</svg>
